<svg width="44" height="44" viewBox="0 0 44 44" fill="none" xmlns="http://www.w3.org/2000/svg">
<rect width="44" height="44" rx="20" fill="#F7F8F9"/>
<g clip-path="url(#clip0_7_1326)">
<path d="M13.3212 16.3983L29.9871 15.6511C30.1555 15.6435 30.3227 15.6837 30.4692 15.767C30.6157 15.8504 30.7356 15.9735 30.8151 16.1222C30.8946 16.2708 30.9303 16.4389 30.9182 16.6071C30.9062 16.7752 30.8467 16.9365 30.7468 17.0723L20.8674 30.5151C20.7662 30.653 20.6275 30.7589 20.4678 30.8203C20.3081 30.8816 20.1342 30.8958 19.9667 30.8611C19.7991 30.8264 19.6451 30.7443 19.5229 30.6246C19.4007 30.5049 19.3154 30.3526 19.2773 30.1858L18.0029 24.6079C17.9873 24.5396 17.9921 24.4681 18.0168 24.4025C18.0415 24.3369 18.0849 24.28 18.1418 24.2389L24.1063 19.9271C24.1311 19.9089 24.1509 19.8846 24.1635 19.8565C24.1762 19.8285 24.1814 19.7976 24.1786 19.7669L24.1691 19.7218C24.1553 19.684 24.129 19.6519 24.0947 19.6309C24.0604 19.6098 24.0199 19.601 23.9799 19.6059L23.9402 19.6149L17.0479 22.1759C16.9822 22.2002 16.9109 22.2046 16.8427 22.1886C16.7746 22.1726 16.7126 22.1369 16.6645 22.086L12.712 17.9041C12.5943 17.7798 12.5149 17.6243 12.4831 17.4561C12.4513 17.2879 12.4686 17.1141 12.5328 16.9554C12.597 16.7968 12.7054 16.6599 12.8452 16.5611C12.985 16.4624 13.1502 16.4058 13.3212 16.3983Z" fill="#191D23"/>
</g>
<defs>
<clipPath id="clip0_7_1326">
<rect width="20" height="20" fill="white" transform="translate(10 15.9277) rotate(-28.1271)"/>
</clipPath>
</defs>
</svg>
